Coordinates
version=1
nRows=8
nColumns=63
inDegrees=yes

Units are S.I. units (second, meters, Newtons, ...)
If the header above contains a line with 'inDegrees', this indicates whether rotational values are in degrees (yes) or radians (no).

endheader
time	pelvis_tilt	pelvis_list	pelvis_rotation	pelvis_tx	pelvis_ty	pelvis_tz	hip_flexion_r	hip_adduction_r	hip_rotation_r	knee_angle_r	knee_angle_r_beta	ankle_angle_r	subtalar_angle_r	mtp_angle_r	hip_flexion_l	hip_adduction_l	hip_rotation_l	knee_angle_l	knee_angle_l_beta	ankle_angle_l	subtalar_angle_l	mtp_angle_l	L5_S1_Flex_Ext	L5_S1_Lat_Bending	L5_S1_axial_rotation	L4_L5_Flex_Ext	L4_L5_Lat_Bending	L4_L5_axial_rotation	L3_L4_Flex_Ext	L3_L4_Lat_Bending	L3_L4_axial_rotation	L2_L3_Flex_Ext	L2_L3_Lat_Bending	L2_L3_axial_rotation	L1_L2_Flex_Ext	L1_L2_Lat_Bending	L1_L2_axial_rotation	L1_T12_Flex_Ext	L1_T12_Lat_Bending	L1_T12_axial_rotation	Abs_r3	Abs_r2	Abs_r1	Abs_t1	Abs_t2	neck_flexion	neck_bending	neck_rotation	arm_flex_r	arm_add_r	arm_rot_r	elbow_flex_r	pro_sup_r	wrist_flex_r	wrist_dev_r	arm_flex_l	arm_add_l	arm_rot_l	elbow_flex_l	pro_sup_l	wrist_flex_l	wrist_dev_l
      0.00000000	      3.91439360	     -3.14332295	    111.05594930	      0.24586324	      0.74184791	      0.74806554	      2.71251561	      2.11676028	     -4.10046273	      3.29126504	      0.05744341	     24.75295703	      2.02612631	      0.00000000	      7.93625380	     -3.20309310	     -3.46359470	     10.81200552	      0.18870509	     36.38116518	     11.23047367	      0.00000000	      0.08684555	     -0.04191564	     -1.38846909	      0.16128086	     -0.05574780	     -1.47524841	      0.14267855	     -0.10191369	     -1.47524841	      0.09925577	     -0.10191369	     -1.21491045	      0.08064477	     -0.08547437	     -1.12813114	      0.04962354	     -0.06492733	     -1.04135182	      0.62032905	     -0.47415811	     -7.72224854	      0.00000000	      0.00000000	     23.54785820	     -3.30846958	     -6.35601250	     12.20847211	      2.57417352	     81.55639224	     28.78706424	     84.48177966	      3.51653126	      9.27230457	     11.55137605	      1.41520602	     66.54256028	     27.79723046	     77.37130578	     18.13596893	     15.22661985
      0.01960784	      4.10661465	     -2.60643992	    110.53162353	      0.24458916	      0.74252384	      0.74637311	      2.49651992	      2.39741637	     -2.87100510	      3.52682798	      0.06155476	     24.56519448	      3.02530636	      0.00000000	      6.91859813	     -3.24282475	     -7.26432506	     10.47785484	      0.18287307	     35.33255590	      8.67500127	      0.00000000	      0.10569949	      0.05179175	     -1.48397055	      0.19629451	      0.06888302	     -1.57671871	      0.17365368	      0.12592646	     -1.57671871	      0.12080394	      0.12592646	     -1.29847423	      0.09815254	      0.10561373	     -1.20572607	      0.06039669	      0.08022542	     -1.11297791	      0.75500085	      0.58587861	     -8.25339902	      0.00000000	      0.00000000	     21.09496241	     -3.26347246	     -4.92471865	     11.40622379	      1.55113756	     77.19654772	     30.43924854	     82.99728253	      5.98001217	     11.09186988	     10.92657879	      1.53422130	     64.35898490	     27.90366166	     74.10231117	     17.77566454	     15.91522688
      0.03921569	      4.17655977	     -2.30308351	    110.91322454	      0.24349435	      0.74282357	      0.74552558	      2.42794875	      2.49216955	     -2.54178373	      3.77442372	      0.06587612	     24.30885209	      3.34302890	      0.00000000	      6.46824109	     -3.07948507	    -10.45788445	     10.42046469	      0.18187142	     34.01343348	      6.51061145	      0.00000000	      0.12276489	      0.09279092	     -1.66275259	      0.22798667	      0.12341193	     -1.76667462	      0.20169043	      0.22561185	     -1.76667462	      0.14030799	      0.22561185	     -1.45490851	      0.11399948	      0.18921925	     -1.35098648	      0.07014786	      0.14373314	     -1.24706444	      0.87689732	      1.04966949	     -9.24773107	      0.00000000	      0.00000000	     19.32150208	     -3.12348721	     -4.58116972	     11.47333631	      1.04808100	     76.84518477	     31.32581153	     82.75488867	      6.38982732	     10.97797097	     10.77152471	      1.39165505	     63.77191693	     28.15701680	     73.56052253	     17.58909656	     15.46757908
      0.05882353	      4.16338007	     -2.23282728	    110.36120959	      0.24358814	      0.74292066	      0.74438530	      2.63315315	      2.44355113	     -1.68365992	      4.17741852	      0.07290971	     24.15403717	      3.95987190	      0.00000000	      5.94209815	     -2.89476463	    -15.16507383	      9.98892507	      0.17433963	     32.45602453	      5.46643285	      0.00000000	      0.14636382	      0.11593408	     -1.61329112	      0.27181226	      0.15419233	     -1.71412181	      0.24046113	      0.28188212	     -1.71412181	      0.16727922	      0.28188212	     -1.41162973	      0.13591345	      0.23641278	     -1.31079903	      0.08363229	      0.17958189	     -1.20996834	      1.04546216	      1.31146950	     -8.97264121	      0.00000000	      0.00000000	     18.51077434	     -2.85689859	     -3.78358820	     11.36496548	      0.72565825	     75.77104638	     31.90382859	     82.35420863	      7.04566842	     12.13773479	     10.03886332	      1.46368468	     61.42655015	     28.65028713	     71.00719746	     15.36562209	     16.86849195
      0.07843137	      4.21717047	     -2.09302702	    111.29104429	      0.24289503	      0.74272309	      0.74424241	      2.60247271	      2.48593036	     -2.03550320	      4.33732549	      0.07570061	     23.90476816	      3.73797443	      0.00000000	      5.91929409	     -2.74114150	    -17.68147953	     10.07391820	      0.17582304	     30.92781642	      3.94338794	      0.00000000	      0.14307842	      0.12472624	     -1.75540258	      0.26571093	      0.16588590	     -1.86511524	      0.23506353	      0.30325938	     -1.86511524	      0.16352432	      0.30325938	     -1.53597726	      0.13286262	      0.25434175	     -1.42626460	      0.08175501	      0.19320095	     -1.31655193	      1.02199482	      1.41092818	     -9.76302253	      0.00000000	      0.00000000	     18.18937884	     -2.72567916	     -3.97008154	     11.52340251	      0.56170190	     75.69962919	     32.16983793	     82.36974272	      7.01186516	     12.10748588	     10.16226246	      1.47007735	     61.37647035	     28.71478124	     71.02010910	     15.22226801	     16.81588164
      0.09803922	      4.18390223	     -2.05399726	    112.07532764	      0.24283897	      0.74251899	      0.74431250	      2.70147522	      2.42708758	     -2.46115190	      4.61537150	      0.08055343	     23.52832027	      3.45933509	      0.00000000	      5.97206167	     -2.54865242	    -19.99977865	     10.12522611	      0.17671853	     29.17582022	      2.68553642	      0.00000000	      0.13821909	      0.11097165	     -1.81783000	      0.25668667	      0.14759230	     -1.93144437	      0.22708014	      0.26981648	     -1.93144437	      0.15797060	      0.26981648	     -1.59060125	      0.12835025	      0.22629339	     -1.47698687	      0.07897839	      0.17189509	     -1.36337250	      0.98728513	      1.25533352	    -10.11022511	      0.00000000	      0.00000000	     18.01200730	     -2.49008355	     -4.27150788	     11.70273623	      0.50301531	     75.71839734	     32.31631207	     82.47417012	      6.85072737	     12.20395469	     10.25728579	      1.46173707	     61.26908303	     28.83023571	     71.15673557	     14.78142510	     16.70066236
      0.11764706	      4.15741655	     -2.07008755	    112.82905577	      0.24279367	      0.74224242	      0.74448293	      2.82706349	      2.34581343	     -2.79529157	      4.89972170	      0.08551628	     23.23828192	      3.18598298	      0.00000000	      6.07205218	     -2.36862374	    -21.99743271	     10.13557235	      0.17689911	     27.69565832	      1.63179115	      0.00000000	      0.13665060	      0.09592171	     -1.86346896	      0.25377382	      0.12757588	     -1.97993577	      0.22450327	      0.23322406	     -1.97993577	      0.15617797	      0.23322406	     -1.63053534	      0.12689374	      0.19560356	     -1.51406853	      0.07808215	      0.14858273	     -1.39760172	      0.97608155	      1.08508561	    -10.36405532	      0.00000000	      0.00000000	     18.03740450	     -2.20748853	     -4.66345527	     11.77024673	      0.48108181	     75.61941726	     32.30710154	     82.43106086	      6.62574085	     12.27914728	     10.37435709	      1.47073264	     61.23415537	     29.06655575	     71.44458134	     14.31373577	     16.62658485
      0.13725490	      3.65930302	     -2.48241381	    112.84735388	      0.24403947	      0.74191732	      0.74403003	      3.42343992	      1.70972464	     -2.11310642	      5.71318288	      0.09971385	     23.02636436	      2.46657489	      0.00000000	      6.14284891	     -1.67693475	    -24.35331547	      9.88759589	      0.17257110	     26.30879972	      1.13232116	      0.00000000	      0.16565010	     -0.00898973	     -1.70272400	      0.30762880	     -0.01195633	     -1.80914425	      0.27214655	     -0.02185762	     -1.80914425	      0.18932150	     -0.02185762	     -1.48988350	      0.15382268	     -0.01833185	     -1.38346325	      0.09465247	     -0.01392508	     -1.27704300	      1.18322210	     -0.10169357	     -9.47004007	      0.00000000	      0.00000000	     18.23489046	     -1.66112745	     -6.71730905	     11.03430932	      0.83107034	     73.82455937	     32.04023328	     80.50508293	      5.25138484	     12.72669702	     10.21270242	      0.89331885	     61.27603174	     30.74347973	     75.06481276	     11.41401551	     16.68389877
